<mxfile host="65bd71144e">
    <diagram id="_0zeHqMotaNRw3xH42Z0" name="Page-1">
        <mxGraphModel dx="845" dy="380" grid="0" gridSize="10" guides="0" tooltips="0" connect="1" arrows="1" fold="1" page="0" pageScale="1" pageWidth="850" pageHeight="1100" math="0" shadow="0">
            <root>
                <mxCell id="0"/>
                <mxCell id="1" parent="0"/>
                <mxCell id="5" style="edgeStyle=none;html=1;" parent="1" source="2" target="4" edge="1">
                    <mxGeometry relative="1" as="geometry"/>
                </mxCell>
                <mxCell id="2" value="User" style="shape=umlActor;verticalLabelPosition=bottom;verticalAlign=top;html=1;" parent="1" vertex="1">
                    <mxGeometry x="40" y="20" width="30" height="60" as="geometry"/>
                </mxCell>
                <mxCell id="24" value="" style="edgeStyle=orthogonalEdgeStyle;html=1;" parent="1" source="3" target="22" edge="1">
                    <mxGeometry relative="1" as="geometry"/>
                </mxCell>
                <mxCell id="3" value="Database" style="shape=datastore;whiteSpace=wrap;html=1;fillColor=#333300;" parent="1" vertex="1">
                    <mxGeometry x="125" y="280" width="60" height="60" as="geometry"/>
                </mxCell>
                <mxCell id="25" style="edgeStyle=orthogonalEdgeStyle;html=1;exitX=1;exitY=0.5;exitDx=0;exitDy=0;entryX=0;entryY=0.5;entryDx=0;entryDy=0;" edge="1" parent="1" source="4" target="10">
                    <mxGeometry relative="1" as="geometry">
                        <mxPoint x="227.40121459960938" y="50" as="targetPoint"/>
                    </mxGeometry>
                </mxCell>
                <mxCell id="4" value="Client&lt;br&gt;Computer" style="html=1;fillColor=#660033;strokeColor=default;" parent="1" vertex="1">
                    <mxGeometry x="110" y="25" width="110" height="50" as="geometry"/>
                </mxCell>
                <mxCell id="10" value="Web&lt;br&gt;Server" style="html=1;fillColor=#000099;" parent="1" vertex="1">
                    <mxGeometry x="300" y="25" width="110" height="50" as="geometry"/>
                </mxCell>
                <mxCell id="13" style="edgeStyle=orthogonalEdgeStyle;html=1;exitX=0.5;exitY=0;exitDx=0;exitDy=0;entryX=1;entryY=0.5;entryDx=0;entryDy=0;" parent="1" source="12" target="10" edge="1">
                    <mxGeometry relative="1" as="geometry"/>
                </mxCell>
                <mxCell id="15" value="" style="edgeStyle=orthogonalEdgeStyle;html=1;" parent="1" source="12" target="14" edge="1">
                    <mxGeometry relative="1" as="geometry"/>
                </mxCell>
                <mxCell id="12" value="HTML page" style="html=1;fillColor=#006600;" parent="1" vertex="1">
                    <mxGeometry x="425" y="110" width="110" height="50" as="geometry"/>
                </mxCell>
                <mxCell id="14" value="DTO object" style="html=1;fillColor=#006600;" parent="1" vertex="1">
                    <mxGeometry x="425" y="190" width="110" height="70" as="geometry"/>
                </mxCell>
                <mxCell id="17" value="" style="edgeStyle=orthogonalEdgeStyle;html=1;" parent="1" source="16" target="14" edge="1">
                    <mxGeometry relative="1" as="geometry"/>
                </mxCell>
                <mxCell id="16" value="Controller" style="html=1;fillColor=#003333;" parent="1" vertex="1">
                    <mxGeometry x="270" y="200" width="110" height="50" as="geometry"/>
                </mxCell>
                <mxCell id="19" value="" style="edgeStyle=orthogonalEdgeStyle;html=1;" parent="1" source="18" target="16" edge="1">
                    <mxGeometry relative="1" as="geometry"/>
                </mxCell>
                <mxCell id="18" value="Service" style="html=1;fillColor=#003333;" parent="1" vertex="1">
                    <mxGeometry x="270" y="110" width="110" height="50" as="geometry"/>
                </mxCell>
                <mxCell id="21" value="" style="edgeStyle=orthogonalEdgeStyle;html=1;" parent="1" source="20" target="18" edge="1">
                    <mxGeometry relative="1" as="geometry"/>
                </mxCell>
                <mxCell id="20" value="Repository" style="html=1;fillColor=#331A00;" parent="1" vertex="1">
                    <mxGeometry x="100" y="110" width="110" height="50" as="geometry"/>
                </mxCell>
                <mxCell id="23" value="" style="edgeStyle=orthogonalEdgeStyle;html=1;" parent="1" source="22" target="20" edge="1">
                    <mxGeometry relative="1" as="geometry"/>
                </mxCell>
                <mxCell id="22" value="Data Model" style="html=1;fillColor=#331A00;" parent="1" vertex="1">
                    <mxGeometry x="100" y="190" width="110" height="50" as="geometry"/>
                </mxCell>
            </root>
        </mxGraphModel>
    </diagram>
</mxfile>